<svg width="51" height="46" viewBox="0 0 51 46" fill="none" xmlns="http://www.w3.org/2000/svg">
<g clip-path="url(#clip0_351_2381)">
<path d="M35.86 12.94L35 11.96L34.04 11.92V11.04L33.4 10.84L33.2 9.92001L32.52 10.04L32 9.00001L29.6 10.52L30.68 8.40001V6.98001H28.76L28.72 5.62001H28.1L28.14 4.86001L26.58 4.98001L26.66 3.66001L25.58 3.70001L25.18 2.82001L0.219971 27.7V31.26L4.63997 27.74L0.219971 32.88V47.44L35.86 12.94Z" fill="black"/>
<path d="M48.7 15.18L50.78 13.7V8.74L48.7 9.56V8.88L50.78 6.86V0.559998L15.22 36.28L21.62 43.1L24.62 40.5L22.42 43.94L25.02 46.72L50.78 21.32V16.46L47.76 18.26L50.78 15.66V14.86L48.7 15.18Z" fill="black"/>
<path d="M48.42 32.24L50.14 33.46V27.74L48.72 26.5L38.5 36.44L50.14 47.44V45.56L47.48 42.46L50.14 44.34V34.24L48.42 32.24Z" fill="black"/>
<path d="M10.22 14.84L12.18 13L0.219971 1.70001V21.38L1.69997 22.8L9.53997 15.46L8.23997 13.36L10.22 14.84Z" fill="black"/>
</g>
<defs>
<clipPath id="clip0_351_2381">
<rect width="51" height="46" fill="white"/>
</clipPath>
</defs>
</svg>
