<svg width="51" height="46" viewBox="0 0 51 46" fill="none" xmlns="http://www.w3.org/2000/svg">
<g clip-path="url(#clip0_351_3217)">
<path d="M35.8597 12.94L34.9997 11.96L34.0397 11.92V11.04L33.3997 10.84L33.1997 9.92001L32.5197 10.04L31.9997 9.00001L29.5997 10.52L30.6797 8.40001V6.98001H28.7597L28.7197 5.62001H28.0997L28.1397 4.86001L26.5797 4.98001L26.6597 3.66001L25.5797 3.70001L25.1797 2.82001L0.219727 27.7V31.26L4.63973 27.74L0.219727 32.88V47.44L35.8597 12.94Z" fill="white"/>
<path d="M48.6997 15.18L50.7797 13.7V8.74L48.6997 9.56V8.88L50.7797 6.86V0.559998L15.2197 36.28L21.6197 43.1L24.6197 40.5L22.4197 43.94L25.0197 46.72L50.7797 21.32V16.46L47.7597 18.26L50.7797 15.66V14.86L48.6997 15.18Z" fill="white"/>
<path d="M48.42 32.24L50.14 33.46V27.74L48.72 26.5L38.5 36.44L50.14 47.44V45.56L47.48 42.46L50.14 44.34V34.24L48.42 32.24Z" fill="white"/>
<path d="M10.2197 14.84L12.1797 13L0.219727 1.70001V21.38L1.69973 22.8L9.53973 15.46L8.23973 13.36L10.2197 14.84Z" fill="white"/>
</g>
<defs>
<clipPath id="clip0_351_3217">
<rect width="51" height="46" fill="white"/>
</clipPath>
</defs>
</svg>
